<svg width="1002" height="440" viewBox="0 0 1002 440" fill="none" xmlns="http://www.w3.org/2000/svg">
<path d="M167.295 114.085C167.295 99.5795 172.49 87.1321 182.879 76.7429C193.268 66.3537 205.716 61.1591 220.222 61.1591C234.727 61.1591 247.175 66.3537 257.564 76.7429C267.953 87.1321 273.148 99.5795 273.148 114.085C273.148 128.591 267.953 141.038 257.564 151.428C247.175 161.817 234.727 167.011 220.222 167.011C210.616 167.011 201.795 164.561 193.759 159.661C185.722 154.956 179.253 148.585 174.352 140.548C169.648 132.707 167.295 123.886 167.295 114.085ZM502.494 114.085C502.494 99.5795 507.689 87.1321 518.078 76.7429C528.467 66.3537 540.915 61.1591 555.42 61.1591C569.926 61.1591 582.374 66.3537 592.763 76.7429C603.152 87.1321 608.347 99.5795 608.347 114.085C608.347 128.591 603.152 141.038 592.763 151.428C582.374 161.817 569.926 167.011 555.42 167.011C545.815 167.011 536.994 164.561 528.957 159.661C520.92 154.956 514.452 148.585 509.551 140.548C504.847 132.707 502.494 123.886 502.494 114.085Z" fill="black" fill-opacity="0.1"/>
<path d="M454.045 228.21C528.142 228.21 596.26 237.815 658.399 257.026C720.734 276.432 778.071 304.071 830.409 339.943V401.102C811.003 386.989 787.088 373.757 758.665 361.408C730.438 349.254 699.368 338.571 665.456 329.358C631.74 320.145 596.848 312.892 560.78 307.599C524.712 302.503 489.134 299.955 454.045 299.955C407.392 299.955 360.053 304.463 312.027 313.48C264.001 322.497 219.406 334.651 178.241 349.94C137.077 365.23 103.557 382.284 77.6818 401.102V339.943C130.02 304.071 187.259 276.432 249.398 257.026C311.733 237.815 379.949 228.21 454.045 228.21Z" fill="black" fill-opacity="0.1"/>
<path d="M133 39.5C235.4 54.7 299.333 29.5 318.5 15" stroke="black" stroke-opacity="0.1" stroke-width="25"/>
<path d="M739 39.3236C636.324 54.4142 572.218 29.3956 553 15" stroke="black" stroke-opacity="0.1" stroke-width="25"/>
</svg>
